<?xml version="1.0" encoding="utf-8"?>
<!-- Svg Vector Icons : http://www.onlinewebfonts.com/icon -->
<!DOCTYPE svg PUBLIC "-//W3C//DTD SVG 1.1//EN" "http://www.w3.org/Graphics/SVG/1.1/DTD/svg11.dtd">
<svg version="1.1" xmlns="http://www.w3.org/2000/svg" xmlns:xlink="http://www.w3.org/1999/xlink" x="0px" y="0px" viewBox="0 0 256 256" enable-background="new 0 0 256 256" xml:space="preserve">
<metadata> Svg Vector Icons : http://www.onlinewebfonts.com/icon </metadata>
<g><g><path fill="#000000" d="M232.1,21.6H23.9c-7.7,0-13.9,6.2-13.9,13.9v134.2c0,7.7,6.2,13.9,13.9,13.9h52.8l8.3-13.9H28.5c-2.6,0-4.6-2.1-4.6-4.6v-125c0-2.6,2.1-4.6,4.6-4.6h199c2.6,0,4.6,2.1,4.6,4.6V165c0,2.6-2.1,4.6-4.6,4.6H121.1c-17.3,0.4-18.5,9.2-18.5,9.2l-0.5-0.5l-27.3,46.8h0.4c-0.3,0.7-0.4,1.5-0.4,2.3c0,3.8,3.1,6.9,6.9,6.9h92.5c3.8,0,6.9-3.1,6.9-6.9c0-0.8-0.2-1.6-0.4-2.3h0.4L165,197.4h-17.7l12.9,23.1H95.9l20.6-37h115.7c7.7,0,13.9-6.2,13.9-13.9V35.5C246,27.8,239.8,21.6,232.1,21.6z M84.1,72.5c-2.6,0-4.6,2.1-4.6,4.6V128c0,2.6,2.1,4.6,4.6,4.6c2.6,0,4.6-2.1,4.6-4.6V77.1C88.7,74.6,86.6,72.5,84.1,72.5z M144.2,132.6c2.6,0,4.6-2.1,4.6-4.6V81.7h27.1c2.9,0,5.3-2.1,5.3-4.6s-2.4-4.6-5.3-4.6h-63.5c-2.9,0-5.3,2.1-5.3,4.6s2.4,4.6,5.3,4.6h27.1V128C139.6,130.6,141.6,132.6,144.2,132.6z"/></g></g>
</svg>