<?xml version="1.0" encoding="utf-8"?>
<!-- Generator: Adobe Illustrator 17.1.0, SVG Export Plug-In . SVG Version: 6.00 Build 0)  -->
<!DOCTYPE svg PUBLIC "-//W3C//DTD SVG 1.1//EN" "http://www.w3.org/Graphics/SVG/1.1/DTD/svg11.dtd">
<svg version="1.1" id="Слой_1" xmlns="http://www.w3.org/2000/svg" xmlns:xlink="http://www.w3.org/1999/xlink" x="0px" y="0px"
	 viewBox="0 0 255.1 141.7" enable-background="new 0 0 255.1 141.7" xml:space="preserve">
<g>
	<path d="M171,26.9c-11.6-11.6-27-18-43.5-18c-33.9,0-61.5,27.6-61.5,61.5c0,10.8,2.8,21.4,8.2,30.7l-8.7,31.8l32.6-8.6
		c9,4.9,19.1,7.5,29.4,7.5h0c33.9,0,62-27.6,62-61.5C189.6,53.9,182.6,38.5,171,26.9z M127.5,121.4c-9.2,0-18.2-2.5-26-7.1l-1.9-1.1
		l-19.3,5.1l5.1-18.9l-1.2-1.9c-5.1-8.1-7.8-17.5-7.8-27.2c0-28.2,22.9-51.1,51.1-51.1c13.6,0,26.5,5.3,36.1,15
		c9.6,9.7,15.6,22.5,15.5,36.1C179.2,98.5,155.7,121.4,127.5,121.4z M155.5,83.2c-1.5-0.8-9.1-4.5-10.5-5c-1.4-0.5-2.4-0.8-3.5,0.8
		c-1,1.6-4,5-4.9,6c-0.9,1-1.8,1.2-3.3,0.4c-9-4.5-14.9-8.1-20.9-18.3c-1.6-2.7,1.6-2.5,4.5-8.4c0.5-1,0.2-1.9-0.1-2.7
		c-0.4-0.8-3.5-8.3-4.7-11.4c-1.2-3-2.5-2.6-3.5-2.6c-0.9-0.1-1.9-0.1-2.9-0.1s-2.7,0.4-4.1,1.9c-1.4,1.6-5.4,5.3-5.4,12.8
		s5.5,14.9,6.3,15.9c0.8,1,10.8,16.5,26.2,23.2c9.7,4.2,13.6,4.6,18.4,3.8c3-0.4,9.1-3.7,10.4-7.3c1.3-3.6,1.3-6.7,0.9-7.3
		C158.1,84.3,157.1,83.9,155.5,83.2z"/>
</g>
</svg>
